# xmcd
#
# Track frame offsets:
#	150
#	21000
#	45157
#	60550
#	79080
#	99065
#	121172
#	138302
#	159225
#	175377
#	191682
#	210237
#	221297
#
# Disc length: 3227 seconds
#
# Revision: 2
# Processed by: cddbd v1.5.1PL0 Copyright (c) Steve Scherf et al.
# Submitted via: EasyCDDAExtractor 6.2.0.3
#
DISCID=970c990d
DTITLE=Chris Farlowe - Waiting In The Wings
DYEAR=1992
DGENRE=Blues
TTITLE0=Rock And Roll Soldier
TTITLE1=Try Me
TTITLE2=Some Mothers Son
TTITLE3=Hold On
TTITLE4=Working In A Parking Lot
TTITLE5=On The Beach
TTITLE6=Too Late To Run For Cover
TTITLE7=Function To Function
TTITLE8=Make It Fly
TTITLE9=Livin' It Up
TTITLE10=Don't Walk Away
TTITLE11=Blues Anthem
TTITLE12=Waiting In The Wings
EXTD=YEAR - 1992\nLine Records  LICD  9 01200 O
EXTT0=
EXTT1=
EXTT2=
EXTT3=
EXTT4=
EXTT5=
EXTT6=
EXTT7=
EXTT8=
EXTT9=
EXTT10=
EXTT11=
EXTT12=
PLAYORDER=
